HIERARCHY
ROOT hip
{
	OFFSET 0.000000 0.000000 0.000000 
	CHANNELS 6 Xposition Yposition Zposition Xrotation Zrotation Yrotation
	JOINT abdomen
	{
		OFFSET 0.000000 3.402643 0.000000 
		CHANNELS 3 Xrotation Zrotation Yrotation
		JOINT chest
		{
			OFFSET 0.000000 8.438565 -0.680529 
			CHANNELS 3 Xrotation Zrotation Yrotation
			JOINT neck
			{
				OFFSET 0.000000 10.207942 -0.272212 
				CHANNELS 3 Xrotation Zrotation Yrotation
				JOINT head
				{
					OFFSET 0.000000 3.130431 0.000000 
					CHANNELS 3 Xrotation Zrotation Yrotation
					End Site
					{
						OFFSET 0.000000 3.130435 0.000000 
					}
				}
			}
			JOINT lCollar
			{
				OFFSET 3.470700 6.669187 -0.816635 
				CHANNELS 3 Yrotation Zrotation Xrotation
				JOINT lShldr
				{
					OFFSET 3.198488 0.000000 0.000000 
					CHANNELS 3 Zrotation Yrotation Xrotation
					JOINT lForeArm
					{
						OFFSET 10.139888 0.000000 0.000000 
						CHANNELS 3 Yrotation Zrotation Xrotation
						JOINT lHand
						{
							OFFSET 8.370511 0.000000 0.000000 
							CHANNELS 3 Zrotation Yrotation Xrotation
							End Site
							{
								OFFSET 4.083176 0.000000 0.000000 
							}
						}
					}
				}
			}
			JOINT rCollar
			{
				OFFSET -3.470700 6.669187 -0.816635 
				CHANNELS 3 Yrotation Zrotation Xrotation
				JOINT rShldr
				{
					OFFSET -3.198488 0.000000 0.000000 
					CHANNELS 3 Zrotation Yrotation Xrotation
					JOINT rForeArm
					{
						OFFSET -10.139888 0.000000 0.000000 
						CHANNELS 3 Yrotation Zrotation Xrotation
						JOINT rHand
						{
							OFFSET -8.370511 0.000000 0.000000 
							CHANNELS 3 Zrotation Yrotation Xrotation
							End Site
							{
								OFFSET -4.083176 0.000000 0.000000 
							}
						}
					}
				}
			}
		}
	}
	JOINT lThigh
	{
		OFFSET 5.308129 -1.633274 1.361059 
		CHANNELS 3 Xrotation Zrotation Yrotation
		JOINT lShin
		{
			OFFSET -2.041588 -20.007561 0.000000 
			CHANNELS 3 Xrotation Zrotation Yrotation
			JOINT lFoot
			{
				OFFSET 0.000000 -19.190928 -1.224953 
				CHANNELS 3 Xrotation Yrotation Zrotation
				End Site
				{
					OFFSET 0.000000 -2.449906 4.627600 
				}
			}
		}
	}
	JOINT rThigh
	{
		OFFSET -5.308129 -1.633274 1.361059 
		CHANNELS 3 Xrotation Zrotation Yrotation
		JOINT rShin
		{
			OFFSET 2.041588 -20.007561 0.000000 
			CHANNELS 3 Xrotation Zrotation Yrotation
			JOINT rFoot
			{
				OFFSET 0.000000 -19.190928 -1.224953 
				CHANNELS 3 Xrotation Yrotation Zrotation
				End Site
				{
					OFFSET 0.000000 -2.449906 4.627600 
				}
			}
		}
	}
}
MOTION
Frames: 8
Frame Time: 0.033333
-28.776814 49.166363 11.959965 -179.870880 175.103622 -2.831963 0.000000 0.000000 0.000000 2.179456 4.226365 -1.830560 4.193948 4.677632 -8.269494 -7.140539 9.256738 -8.806689 -3.859723 5.675743 2.840227 -82.390137 0.980107 9.255045 -41.722527 -5.768407 12.184755 10.767033 3.258979 -3.511484 4.100124 19.147532 1.586357 61.725056 -17.834242 -25.941870 41.563229 4.593297 -11.844257 -21.992594 -5.242156 -3.170977 -20.170231 10.436308 3.007591 41.376316 1.622040 13.001225 -7.657380 0.298555 -4.417607 -4.109467 2.313115 -4.787160 15.328164 5.339498 -1.588763 -11.955692 0.269773 -2.789757 
-28.892857 49.099388 10.990686 -179.812836 175.970551 -2.476258 0.000000 0.000000 0.000000 2.355739 3.525287 -0.439823 4.697925 3.940906 -7.478096 -8.635007 8.805358 -9.497387 -2.383738 4.808186 2.888949 -81.504593 1.432601 7.688985 -42.453281 -4.873923 13.601716 11.398820 2.726077 -3.562143 5.506129 18.864456 1.703035 60.313133 -16.612288 -24.357643 42.210857 5.117877 -11.063798 -22.145943 -4.716085 -3.272342 -23.218576 9.158445 1.846749 37.782173 1.189486 12.894207 -5.835253 -0.096664 1.768149 -3.448923 1.257836 -5.147048 16.471153 5.027286 -0.984764 -12.742727 0.234459 -2.322822 
-29.003124 49.028824 9.981683 -179.716370 176.819321 -2.454438 0.000000 0.000000 0.000000 2.578841 2.831189 1.398638 4.903989 3.290972 -6.240335 -9.362000 8.114470 -9.775641 -0.672482 4.443653 2.996559 -80.761398 1.765511 6.461481 -42.985256 -4.267295 14.631030 12.800833 1.795753 -3.657418 6.965556 18.338961 1.925315 59.317345 -15.568757 -23.338926 42.783356 5.377795 -10.058056 -22.247419 -4.100142 -3.372687 -24.629368 8.369585 1.555509 31.829304 0.212163 14.175148 -4.403764 -0.140814 4.646021 -2.713629 0.380882 -5.379535 17.610224 4.509943 -0.405217 -14.210696 0.206432 -1.842161 
-29.111689 48.936710 8.897597 -179.434662 177.385483 -2.590540 0.000000 0.000000 0.000000 2.924764 2.368823 3.421099 4.912781 2.939952 -4.546546 -9.453028 6.878877 -9.452274 2.144445 4.373051 3.170260 -80.048111 1.720274 5.666139 -43.378613 -3.962753 14.807491 13.073897 1.216305 -3.717735 8.216596 17.873865 2.329607 58.484089 -14.633270 -22.654421 43.910069 5.656206 -10.960056 -22.681870 -4.332400 -3.328753 -23.995739 8.258718 1.777809 23.545456 -1.111397 14.872990 -4.012222 -0.105397 4.284831 -1.581477 -0.185527 -5.425375 18.545832 4.002012 0.013846 -16.056101 0.162287 -1.312205 
-29.269140 48.843277 7.697395 -179.209473 178.350662 -2.051618 0.000000 0.000000 0.000000 3.113939 1.770578 5.002434 4.810608 1.882032 -3.087478 -9.735764 6.814599 -9.775681 4.189030 3.212806 3.267101 -78.341324 2.131959 4.548067 -43.964516 -3.819878 14.109806 11.819440 1.243407 -3.690594 9.437516 15.673950 2.584515 59.420933 -13.501910 -22.713682 43.974426 5.530514 -11.273679 -22.327419 -4.641369 -3.281827 -22.176218 7.431268 1.725067 13.402186 -2.675998 14.472281 -2.907609 -0.082989 4.047213 -0.048108 -1.399548 -6.098794 19.194618 3.710216 0.514437 -17.975330 0.083342 -0.807898 
-29.427891 48.681255 6.466875 -179.742264 179.023773 -1.494256 0.000000 0.000000 0.000000 2.650725 1.193987 6.271014 4.388476 1.151801 -1.758046 -9.828027 6.965701 -9.917223 5.686244 3.102539 2.782207 -77.911987 3.519847 2.501012 -44.586113 -2.834900 14.454800 11.443103 0.862174 -3.711381 10.819933 14.137535 2.191897 59.621567 -12.686716 -22.480885 43.833759 5.511991 -10.671356 -21.931498 -4.984910 -3.228113 -20.231201 6.688295 1.379247 2.293846 -3.844568 14.260133 -0.681359 -0.009281 3.377502 0.759733 -2.103719 -6.330474 19.853619 3.249275 0.363726 -19.980379 -0.018056 -0.100283 
-29.561386 48.474426 5.156635 179.449387 179.394684 -1.279329 0.000000 0.000000 0.000000 1.823378 0.726253 7.442043 4.008478 0.585914 -0.507786 -9.833106 6.671022 -9.733479 7.433142 3.199033 1.977582 -77.900291 5.212079 0.098008 -44.674831 -1.760425 14.438277 13.344113 -0.068797 -3.859960 12.238263 13.366260 1.399214 58.811813 -11.938143 -21.899279 43.837151 5.723286 -10.870082 -21.966562 -5.191764 -3.183134 -20.353941 6.394131 1.083335 -3.226814 -4.662436 14.365894 0.922077 0.016740 2.172015 1.548073 -2.365843 -6.115508 20.100309 2.546664 -0.023082 -21.873058 -0.169631 0.729235 
-29.790600 48.281143 3.659946 179.259155 -179.882828 -0.654315 0.000000 0.000000 0.000000 1.420200 0.231971 8.212981 3.668779 -0.605461 0.292952 -9.612710 6.914497 -10.063785 9.183004 2.096997 1.610543 -76.730171 6.768371 -2.168971 -44.468864 -1.162466 13.484395 14.972091 -0.413551 -3.940901 13.142995 11.915443 1.106645 58.538239 -10.697363 -21.677027 43.285233 5.749013 -10.003196 -22.083633 -4.775858 -3.251166 -20.445271 5.311403 0.851326 -3.693910 -5.131457 15.254282 1.682687 0.016891 1.231744 4.166985 -3.122987 -6.590081 18.982487 2.205656 -0.756713 -23.465532 -0.408809 1.746283 
